# xmcd
#
# Track frame offsets: 
#        150
#        10658
#        30136
#        46473
#        82967
#        112558
#        131521
#        160655
#        173022
#        187912
#        203319
#        221846
#        233747
#        248972
#        267160
#        285410
#        302297
#        320961
#
# Disc length: 4501 seconds
#
# Revision: 1
# Processed by: cddbd v1.5.2PL0 Copyright (c) Steve Scherf et al.
# Submitted via: ExactAudioCopy v0.99pb5
#
DISCID=d5119312
DTITLE=Roy Buchanan - Live Stock and A Street Called Straight
DYEAR=2005
DGENRE=Blues
TTITLE0=Reelin' And Rockin'
TTITLE1=Hot Cha
TTITLE2=Further On Up The Road
TTITLE3=Roy's Bluz
TTITLE4=Can I Change My Mind
TTITLE5=I'm A Ram
TTITLE6=I'm Evil
TTITLE7=Running Out
TTITLE8=Keep What You Got
TTITLE9=Man On The Floor
TTITLE10=Good God Have Mercy
TTITLE11=Okay
TTITLE12=Caruso
TTITLE13=My Friend Jeff
TTITLE14=If Six Was Nine
TTITLE15=Guitar Cadenza
TTITLE16=The Messiah Will Come Again
TTITLE17=I Still Think About Ida Mae
EXTD=
EXTT0=
EXTT1=
EXTT2=
EXTT3=
EXTT4=
EXTT5=
EXTT6=
EXTT7=
EXTT8=
EXTT9=
EXTT10=
EXTT11=
EXTT12=
EXTT13=
EXTT14=
EXTT15=
EXTT16=
EXTT17=
PLAYORDER=
